<?xml version="1.0" standalone="no"?>
<!DOCTYPE svg PUBLIC "-//W3C//DTD SVG 20010904//EN"
 "http://www.w3.org/TR/2001/REC-SVG-20010904/DTD/svg10.dtd">
<svg version="1.0" xmlns="http://www.w3.org/2000/svg"
 width="32.000000pt" height="32.000000pt" viewBox="0 0 32.000000 32.000000"
 preserveAspectRatio="xMidYMid meet">

<g transform="translate(0.000000,32.000000) scale(0.100000,-0.100000)"
fill="#000000" stroke="none">
<path d="M90 283 c-95 -49 -87 -193 13 -232 105 -40 206 61 166 166 -27 70
-111 101 -179 66z m110 -18 c32 -17 60 -61 60 -95 0 -53 -57 -110 -110 -110
-53 0 -110 57 -110 110 0 33 28 78 58 94 35 20 66 20 102 1z"/>
<path d="M112 207 c-36 -37 -32 -60 5 -25 l23 21 0 -51 c0 -29 5 -52 10 -52 6
0 10 23 10 52 l0 51 23 -21 c37 -35 41 -12 5 25 -17 18 -35 33 -38 33 -3 0
-21 -15 -38 -33z"/>
</g>
</svg>
