<?xml version="1.0" encoding="utf-8"?>
<!-- Generator: Adobe Illustrator 24.3.0, SVG Export Plug-In . SVG Version: 6.00 Build 0)  -->
<svg version="1.1" id="Capa_1" xmlns="http://www.w3.org/2000/svg" xmlns:xlink="http://www.w3.org/1999/xlink" x="0px" y="0px"
	 viewBox="0 0 547 164" style="enable-background:new 0 0 547 164;" xml:space="preserve">
<style type="text/css">
	.st0{fill:none;}
	.st1{fill:#020203;}
	.st2{font-family:'EurostileRegular';}
	.st3{font-size:17.0122px;}
	.st4{letter-spacing:1;}
	.st5{fill:none;stroke:#020203;stroke-width:0.9452;stroke-miterlimit:10;}
	.st6{fill:#1D1D1B;}
</style>
<g id="AM_logo_2_">
	<rect x="105.4" y="127.6" class="st0" width="338.5" height="29.8"/>
	<text transform="matrix(1 0 0 1 105.4072 140.9717)" class="st1 st2 st3 st4">SHOES &amp; LEATHER BAGS MAGAZINE</text>
	<line class="st5" x1="4.1" y1="122" x2="540.9" y2="122"/>
	<line class="st5" x1="4.1" y1="148.7" x2="540.9" y2="148.7"/>
	<g>
		<path class="st6" d="M427.6,107c0-0.7,0.1-1.1,0.1-1.5c0-26.1,0-52.3-0.1-78.4c0-2.8-0.5-5.6-1.4-8.3c-2.9-9.1-13.2-10.5-18.4-6.8
			c-1.9,1.3-3,1.1-4.6,0c-4.6-3.3-13.9-2.3-17.4,4.5c-1.7,3.4-2.4,7-2.4,10.7c-0.1,25.8,0,51.5,0,77.3c0,0.8,0,1.6,0,2.5
			c3.6,0,7,0,10.6,0c0-1,0-1.9,0-2.8c0-25.3,0-50.6,0-76c0-1.2,0-2.6,0.6-3.7c0.4-0.8,1.6-1.7,2.5-1.8c0.8,0,2.1,0.9,2.5,1.7
			c0.6,1.1,0.7,2.6,0.7,3.9c0,25.2,0,50.5,0,75.7c0,0.9,0,1.9,0,2.9c3.6,0,6.9,0,10.6,0c0-1.1,0-2,0-3c0-25.4,0-50.8,0-76.2
			c0-1-0.2-2.1,0.2-2.8c0.6-1,1.7-2,2.7-2.2c0.7-0.1,2,0.9,2.5,1.7c0.5,0.8,0.5,2,0.5,3c0,25.5,0,51.1,0,76.6c0,0.9,0,1.9,0,2.9
			C420.5,107,423.9,107,427.6,107z"/>
		<path class="st6" d="M206.2,107c0-25.5,0-50.9,0-76.1c-3.6,0-7,0-10.8,0c0,7.3,0,14.4,0,21.5c-0.2,0.1-0.4,0.1-0.7,0.1
			c-5.5-9.4-10.9-18.8-16.6-28.7c0,28.1,0,55.6,0,83.1c3.6,0,6.9,0,10.6,0c0-14.4,0-28.7,0-43c0.2-0.1,0.4-0.1,0.6-0.2
			c1.3,2,2.4,4,3.8,5.9c2,2.7,2.6,5.6,2.6,9c-0.2,8.6-0.1,17.3-0.1,25.9c0,0.8,0.1,1.6,0.1,2.4C199.4,107,202.7,107,206.2,107z"/>
		<path class="st6" d="M315.1,110.9c5.2-26.7,10.3-53.3,15.4-80c-3.8,0-7.3,0-10.8,0c-1.9,10.4-3.7,20.8-5.5,31.2
			c-0.2,0-0.4,0.1-0.6,0.1c-0.2-0.5-0.5-0.9-0.6-1.4c-0.5-2.9-1-5.8-1.5-8.8c-1.1-6.5-2.2-13-3.4-19.5c-0.1-0.6-0.8-1.6-1.3-1.6
			c-3.2-0.1-6.4-0.1-9.9-0.1c0.8,4.5,1.6,8.7,2.4,12.9c2,10.2,4,20.3,6,30.5c2.3,11.7,4.6,23.4,6.8,35.1
			C312.5,111,313.3,111.5,315.1,110.9z"/>
		<path class="st6" d="M93.4,107c0-22,0-43.7,0-65.7c2.6,0,4.9,0.1,7.2,0c0.6,0,1.6-0.5,1.7-0.9c0.1-3.2,0.1-6.3,0.1-9.5
			c-9.7,0-19,0-28.4,0c0,3.5,0,6.8,0,10.4c0.9,0,1.7,0,2.5,0c2,0.1,4.7-0.5,5.7,0.5c1,1.1,0.5,3.8,0.5,5.8c0,18.9,0,37.8,0,56.7
			c0,0.9,0,1.7,0,2.6C86.4,107,89.7,107,93.4,107z"/>
		<path class="st6" d="M281.5,30.9c-9.7,0-19,0-28.3,0c0,3.6,0,6.9,0,10.4c2.1,0,3.9,0.1,5.8,0c2.2-0.2,2.8,0.5,2.7,2.7
			c-0.1,20-0.1,40,0,60.1c0,0.9,0.1,1.9,0.1,2.8c3.6,0,7,0,10.5,0c0-4.9,0-9.7,0-14.5c0-16.1,0-32.2,0-48.2c0-2.9,0-2.9,3-2.9
			c1.6,0,3.1,0.1,4.7-0.1c0.5-0.1,1.5-0.7,1.5-1.1C281.5,37.1,281.5,34,281.5,30.9z"/>
		<path class="st6" d="M54,30.8c-0.1,0.6-0.2,0.9-0.2,1.3c0,21-0.1,42,0,63c0,5.3,3.3,10.5,7.9,11.2c5.4,0.9,10.9,0.7,16.4,1.1
			c0-4,0-7.4,0-10.9c-3.3,0-6.4,0-9.5,0c-4,0-4.2-0.1-4.2-4.1c0-19.6,0-39.1,0-58.7c0-0.9,0-1.7,0-2.7C60.8,30.8,57.5,30.8,54,30.8z
			"/>
		<path class="st6" d="M294,107c0-1,0-1.9,0-2.8c0-23.5,0-47,0-70.5c0-0.6,0.1-1.2-0.1-1.8c-0.1-0.4-0.5-1-0.8-1.1
			c-3.3-0.1-6.6-0.1-10-0.1c0,25.6,0,50.9,0,76.2C286.8,107,290.2,107,294,107z"/>
		<path class="st6" d="M536.2,107c-3.6,0-6.9,0-10.5,0c0-5,0-9.9,0-15c-2.5,0-4.7,0-7.2,0c0,4.9,0,9.9,0,14.9c-3.7,0-7.1,0-10.7,0
			c0-5,0-9.8,0-15.1c-1.5,0-2.9-0.1-4.1,0c-1.9,0.3-2.9-0.6-3.7-2.1c-1.1-2-2.4-3.9-3.6-5.9c-0.3-0.4-0.7-0.8-1.3-1.5
			c-4.9,14.2-14.8,22.9-28.6,28c0-27.7,0-55.1,0-82.8c11.1,4.2,20,10.6,25.6,21.1c5.6,10.5,5.5,21.5,3.5,32.8c4.1,0,8.1,0,12.3,0
			c0-1,0-1.8,0-2.7c0-11.6,0-23.2,0-34.9c0-6.9,3.8-12.4,9.6-14.4c9.8-3.2,18.9,3.3,18.9,13.5c0,20.4,0,40.8,0,61.2
			C536.3,105.2,536.2,106,536.2,107z M525.5,81.6c0-1,0-1.8,0-2.7c0-6.3,0-12.5,0-18.7c0-5.6,0-11.2,0-16.7c0-3.2-3.1-5.2-5.4-3.3
			c-1,0.8-1.6,2.7-1.6,4c-0.1,11.9-0.1,23.8-0.1,35.7c0,0.6,0.1,1.1,0.2,1.7C520.9,81.6,523.1,81.6,525.5,81.6z M477.1,91
			c12.5-12.1,11.3-32.8,0-43.1C477.1,62.2,477.1,76.4,477.1,91z"/>
		<path class="st6" d="M427.6,107c-3.6,0-7,0-10.7,0c0-1,0-2,0-2.9c0-25.5,0-51.1,0-76.6c0-1,0-2.2-0.5-3c-0.5-0.8-1.8-1.8-2.5-1.7
			c-1,0.2-2.1,1.2-2.7,2.2c-0.4,0.7-0.2,1.9-0.2,2.8c0,25.4,0,50.8,0,76.2c0,1,0,1.9,0,3c-3.6,0-6.9,0-10.6,0c0-1,0-1.9,0-2.9
			c0-25.2,0-50.5,0-75.7c0-1.3-0.1-2.7-0.7-3.9c-0.4-0.8-1.6-1.7-2.5-1.7c-0.9,0-2.1,0.9-2.5,1.8c-0.5,1.1-0.6,2.4-0.6,3.7
			c0,25.3,0,50.6,0,76c0,0.9,0,1.7,0,2.8c-3.6,0-7,0-10.6,0c0-0.9,0-1.7,0-2.5c0-25.8,0-51.5,0-77.3c0-3.7,0.7-7.3,2.4-10.7
			c3.5-6.8,12.8-7.8,17.4-4.5c1.6,1.2,2.7,1.4,4.6,0c5.2-3.7,15.6-2.3,18.4,6.8c0.8,2.6,1.4,5.5,1.4,8.3c0.1,26.1,0.1,52.3,0.1,78.4
			C427.7,105.9,427.6,106.3,427.6,107z"/>
		<path class="st6" d="M132.9,91.9c-4.9,0-9.7,0-14.8,0c0,0.9,0,1.7,0,2.4c0,1.5,0.7,2.2,2.4,2.2c4.1-0.1,8.2,0,12.5,0
			c0,3.6,0,7,0,10.3c-5.7,0-11.3,0.4-16.8-0.1c-5-0.5-7.7-4-8.4-9.1c-0.2-1.8-0.4-3.5-0.6-5.7c-1.5,0-3.1,0.1-4.7,0
			c-0.7,0-1.6-0.3-1.9-0.7c-1.9-2.9-3.7-5.9-5.8-9.2c4.3,0,8.3,0,12.6,0c0-17.1,0-34,0-51c8.6,0,17,0,25.6,0c0,3.5,0,6.9,0,10.5
			c-4.4,0-8.7,0-12.9,0c-1.4,0-2,0.3-2,1.8c0.1,12.4,0,24.9,0,37.3c0,0.3,0.1,0.6,0.1,1c8,0,16,0,24.3,0c0-18.1,0-36,0-54.1
			c21.7,3.1,39.4,31.1,22.5,54.4c0.2,0.2,0.5,0.5,0.8,0.7c3.6,1.4,5.5,4.1,5.7,7.8c0.2,4.8,0.2,9.7,0.2,14.5c0,0.7-0.1,1.3-0.1,2.1
			c-3.5,0-6.8,0-10.5,0c0-3.2,0.1-6.4,0-9.7c-0.1-5,1.3-5.5-5.5-5.4c-0.7,0-1.5,0-2.5,0c0,5.1,0,10.1,0,15.1c-3.6,0-6.9,0-10.6,0
			c0-5,0-9.9,0-15.1L132.9,91.9z M153.4,44.9c0,11.9,0,23.2,0,35c5.4-5,7.8-10.7,7.7-17.4C160.9,56,158.2,50.3,153.4,44.9z"/>
		<path class="st6" d="M10.9,83.5c-0.9-2.4-2.2-4.6-3.6-7.3c3.6,0,6.8,0,9.9,0c2,0.1,2.5-0.6,2.5-2.5c-0.1-14.5-0.1-29,0-43.6
			c0-4.4,0.5-8.9,2.8-12.9c2.9-5.1,7.3-7.6,13.3-7.1c5,0.5,8.3,3.2,10.4,7.7c1.7,3.7,2.3,7.7,2.3,11.7c0.1,24.9,0,49.7,0,74.6
			c0,0.9-0.1,1.8-0.2,2.8c-3.5,0-6.8,0-10.4,0c0-1.4,0-2.8,0-4.2c0-4.3,0-8.6,0-13c0-1.3-0.4-1.8-1.8-1.9c-5.9-0.3-5.9-0.3-5.9,5.6
			c0,4.4,0,8.9,0,13.5c-3.6,0-6.9,0-10.5,0c0-0.8-0.1-1.6-0.1-2.4c0-4.8-0.1-9.7,0-14.5c0-1.5-0.3-2.4-1.9-2.1H13L10.9,83.5z
			 M30.3,76.2c1.7,0,3.3-0.1,4.8,0c2.1,0.2,2.8-0.4,2.8-2.7c-0.1-14.4,0-28.9-0.1-43.3c0-1.6-0.3-3.2-0.6-4.8
			c-0.3-1.8-1.6-2.7-3.3-2.7c-1.8,0.1-2.9,1.2-3.1,2.9c-0.2,1.5-0.4,2.9-0.5,4.4c0,14.4,0,28.9,0,43.3C30.3,74.2,30.3,75,30.3,76.2z
			"/>
		<path class="st6" d="M362.6,107c-3.7,0-7,0-10.5,0c0-5,0-9.8,0-14.9c-2.5,0-4.7,0-7.3,0c0,4.9,0,9.8,0,14.9c-3.8,0-7.2,0-11,0
			c0-4.9,0-9.9,0-14.9c-0.9-0.1-1.5-0.2-2-0.1c-3.1,0.6-5.2-0.6-6.6-3.5c-1-2.2-2.5-4.2-4-6.6c4.3,0,8.3,0,12.5,0c0-1.2,0-2,0-2.9
			c0-10.9-0.2-21.7,0.1-32.6c0.1-3.5,1-7.1,2.3-10.3c2.1-5,8.5-7.9,14-7c7.2,1.1,10.5,4.9,12,11.1c0.4,1.8,0.4,3.7,0.4,5.5
			c0,19.5,0,39,0,58.5C362.6,105,362.6,105.8,362.6,107z M352,81.6c0-12.9,0.1-25.5-0.1-38.1c0-1.2-0.9-2.8-1.8-3.5
			c-2.4-1.6-5.2,0.2-5.3,3.3c0,12.2,0,24.4,0,36.6c0,0.6,0.1,1.1,0.2,1.7C347.3,81.6,349.5,81.6,352,81.6z"/>
		<path class="st6" d="M238.6,107c0-5.1,0-10,0-15c-2.4,0-4.6,0-7.2,0c0,4.9,0,9.9,0,14.9c-3.7,0-7.1,0-10.7,0c0-5,0-9.8,0-15.1
			c-1.7,0-3.1-0.1-4.6,0c-1.6,0.2-2.4-0.5-3.2-1.8c-1.5-2.7-3.2-5.3-5.1-8.3c4.5,0,8.6,0,12.9,0c0-1.2,0-2,0-2.9
			c0-11.7,0-23.4,0-35.1c0-11.5,11.2-18.5,21.5-13.1c4.7,2.5,6.9,6.9,7,12c0.2,20.9,0.1,41.8,0.1,62.8c0,0.5-0.1,1-0.2,1.6
			C245.6,107,242.3,107,238.6,107z M238.4,81.6c0.1-0.7,0.1-1.2,0.1-1.7c0-12,0-23.9,0-35.9c0-0.7-0.1-1.5-0.4-2.2
			c-0.9-2.4-4.3-3.1-5.8-1c-0.7,0.9-1,2.3-1,3.5c-0.1,11.7,0,23.5,0,35.2c0,0.7,0.1,1.3,0.1,2.1C233.8,81.6,236,81.6,238.4,81.6z"/>
		<path class="st6" d="M206.2,107c-3.5,0-6.9,0-10.5,0c0-0.8-0.1-1.6-0.1-2.4c0-8.6-0.1-17.3,0.1-25.9c0.1-3.4-0.6-6.3-2.6-9
			c-1.4-1.9-2.5-3.9-3.8-5.9c-0.2,0.1-0.4,0.1-0.6,0.2c0,14.3,0,28.5,0,43c-3.7,0-7,0-10.6,0c0-27.4,0-54.9,0-83.1
			c5.7,9.9,11.2,19.3,16.6,28.7c0.2-0.1,0.4-0.1,0.7-0.1c0-7.1,0-14.2,0-21.5c3.8,0,7.2,0,10.8,0C206.2,56.2,206.2,81.5,206.2,107z"
			/>
		<path class="st6" d="M461.2,69.2c0,8.9,0,17.7,0,26.6c0,7.1-5.2,12.7-12.3,13.1c-1.7,0.1-3.5,0.1-5.1-0.1
			c-7-1.1-11.6-6.4-11.6-13.7c-0.1-17.4-0.1-34.9,0-52.3c0-7.5,5.4-13,13.1-13.8c7.4-0.8,13.9,3.6,15.7,10.6
			c0.2,0.8,0.3,1.8,0.3,2.6C461.2,51.2,461.2,60.2,461.2,69.2z M450.6,68.9c0-8.1,0-16.2,0-24.3c0-0.9-0.2-1.8-0.4-2.6
			c-0.5-1.8-1.8-2.5-3.5-2.4c-1.8,0.1-3.1,1.1-3.4,2.9c-0.2,1.4-0.4,2.8-0.4,4.2c0,10.2,0,20.4,0,30.6c0,4.8,0,9.7,0,14.5
			c0,1.3,0.2,2.7,0.4,4c0.3,1.6,2.3,2.7,4,2.5c2.1-0.3,3.3-1.7,3.3-4.3C450.6,85.5,450.6,77.2,450.6,68.9z"/>
		<path class="st6" d="M315.1,110.9c-1.8,0.6-2.7,0.2-3-1.6c-2.2-11.7-4.5-23.4-6.8-35.1c-2-10.2-4-20.3-6-30.5
			c-0.8-4.2-1.6-8.4-2.4-12.9c3.5,0,6.7-0.1,9.9,0.1c0.5,0,1.1,1,1.3,1.6c1.2,6.5,2.3,13,3.4,19.5c0.5,2.9,1,5.8,1.5,8.8
			c0.1,0.5,0.4,1,0.6,1.4c0.2,0,0.4-0.1,0.6-0.1c1.8-10.4,3.7-20.7,5.5-31.2c3.6,0,7,0,10.8,0C325.4,57.6,320.3,84.2,315.1,110.9z"
			/>
		<path class="st6" d="M93.4,107c-3.8,0-7,0-10.7,0c0-0.9,0-1.8,0-2.6c0-18.9,0-37.8,0-56.7c0-2,0.6-4.7-0.5-5.8
			c-1-1-3.8-0.4-5.7-0.5c-0.8,0-1.6,0-2.5,0c0-3.6,0-6.9,0-10.4c9.4,0,18.7,0,28.4,0c0,3.2,0.1,6.3-0.1,9.5c0,0.3-1.1,0.8-1.7,0.9
			c-2.3,0.1-4.6,0-7.2,0C93.4,63.3,93.4,85.1,93.4,107z"/>
		<path class="st6" d="M281.5,30.9c0,3.1,0.1,6.2-0.1,9.3c0,0.4-0.9,1-1.5,1.1c-1.6,0.1-3.1,0.1-4.7,0.1c-2.9,0-3,0-3,2.9
			c0,16.1,0,32.2,0,48.2c0,4.8,0,9.5,0,14.5c-3.5,0-6.9,0-10.5,0c0-0.9-0.1-1.9-0.1-2.8c0-20,0-40,0-60.1c0-2.2-0.6-2.9-2.7-2.7
			c-1.8,0.2-3.7,0-5.8,0c0-3.5,0-6.9,0-10.4C262.4,30.9,271.8,30.9,281.5,30.9z"/>
		<path class="st6" d="M54,30.8c3.5,0,6.9,0,10.5,0c0,1,0,1.9,0,2.7c0,19.6,0,39.1,0,58.7c0,4,0.1,4.1,4.2,4.1c3.1,0,6.2,0,9.5,0
			c0,3.6,0,6.9,0,10.9c-5.5-0.3-11-0.2-16.4-1.1c-4.6-0.7-7.9-5.9-7.9-11.2c-0.1-21,0-42,0-63C53.8,31.8,53.9,31.4,54,30.8z"/>
		<path class="st6" d="M294,107c-3.9,0-7.3,0-10.8,0c0-25.4,0-50.6,0-76.2c3.3,0,6.6,0,10,0.1c0.3,0,0.7,0.6,0.8,1.1
			c0.1,0.6,0.1,1.2,0.1,1.8c0,23.5,0,47,0,70.5C294,105.1,294,105.9,294,107z"/>
	</g>
</g>
</svg>
