<?xml version="1.0" encoding="UTF-8"?>
<svg xmlns="http://www.w3.org/2000/svg" xmlns:xlink="http://www.w3.org/1999/xlink" viewBox="0 0 16 16" width="16px" height="16px">
<g id="surface66614941">
<path style=" stroke:none;fill-rule:nonzero;fill:rgb(0%,0%,0%);fill-opacity:1;" d="M 13.257812 5.625 C 13.226562 5.585938 13.210938 5.539062 13.210938 5.492188 C 12.75 4.675781 12.722656 3.679688 12.257812 2.863281 C 10.957031 3.59375 10.066406 4.898438 9.214844 6.085938 C 8.703125 6.800781 8.242188 7.535156 7.820312 8.304688 C 7.398438 9.082031 6.984375 9.867188 6.507812 10.613281 C 6.441406 10.71875 6.261719 10.769531 6.1875 10.632812 C 5.960938 10.21875 5.710938 9.816406 5.417969 9.441406 C 5.167969 9.117188 4.882812 8.832031 4.628906 8.515625 C 4.230469 8.023438 3.804688 7.4375 3.257812 7.097656 C 3.054688 7.753906 2.820312 8.402344 2.71875 9.085938 C 3.488281 9.582031 4.074219 10.300781 4.640625 11.007812 C 5.304688 11.839844 5.988281 12.632812 6.730469 13.394531 C 7.210938 12.765625 7.542969 12.035156 7.945312 11.351562 C 8.414062 10.550781 8.964844 9.808594 9.550781 9.085938 C 10.132812 8.359375 10.808594 7.71875 11.488281 7.085938 C 11.804688 6.789062 12.179688 6.546875 12.523438 6.273438 C 12.777344 6.070312 13.027344 5.855469 13.261719 5.628906 C 13.261719 5.632812 13.261719 5.628906 13.257812 5.625 Z M 13.257812 5.625 "/>
<path style=" stroke:none;fill-rule:nonzero;fill:rgb(0%,0%,0%);fill-opacity:1;" d="M 13.632812 5.320312 L 13.542969 5.320312 C 13.035156 4.457031 13.039062 3.367188 12.480469 2.511719 C 12.421875 2.417969 12.3125 2.414062 12.222656 2.460938 C 10.796875 3.183594 9.839844 4.578125 8.933594 5.839844 C 8.414062 6.566406 7.945312 7.308594 7.515625 8.089844 C 7.132812 8.789062 6.761719 9.492188 6.347656 10.171875 C 6.160156 9.847656 5.953125 9.535156 5.726562 9.238281 C 5.46875 8.898438 5.167969 8.601562 4.902344 8.273438 C 4.429688 7.691406 3.921875 6.996094 3.226562 6.664062 C 3.109375 6.609375 2.992188 6.679688 2.960938 6.796875 C 2.746094 7.539062 2.464844 8.265625 2.351562 9.027344 C 2.351562 9.03125 2.351562 9.035156 2.351562 9.039062 C 2.289062 9.125 2.28125 9.261719 2.398438 9.335938 C 3.226562 9.820312 3.835938 10.609375 4.429688 11.351562 C 5.117188 12.21875 5.839844 13.042969 6.621094 13.824219 C 6.695312 13.898438 6.820312 13.882812 6.882812 13.808594 C 7.421875 13.164062 7.78125 12.402344 8.191406 11.679688 C 8.648438 10.867188 9.191406 10.105469 9.789062 9.390625 C 10.386719 8.675781 11.039062 8.023438 11.722656 7.390625 C 12.046875 7.085938 12.429688 6.835938 12.777344 6.558594 C 13.058594 6.335938 13.332031 6.101562 13.585938 5.847656 C 13.660156 5.832031 13.71875 5.78125 13.730469 5.699219 C 13.75 5.679688 13.769531 5.660156 13.789062 5.640625 C 13.90625 5.503906 13.789062 5.320312 13.632812 5.320312 Z M 12.523438 6.28125 C 12.179688 6.554688 11.808594 6.796875 11.488281 7.09375 C 10.804688 7.726562 10.132812 8.367188 9.550781 9.089844 C 8.964844 9.816406 8.414062 10.554688 7.945312 11.359375 C 7.542969 12.039062 7.210938 12.773438 6.730469 13.398438 C 5.988281 12.644531 5.300781 11.847656 4.640625 11.015625 C 4.074219 10.304688 3.484375 9.585938 2.71875 9.089844 C 2.820312 8.410156 3.054688 7.757812 3.257812 7.101562 C 3.808594 7.445312 4.230469 8.03125 4.628906 8.523438 C 4.882812 8.835938 5.167969 9.125 5.417969 9.445312 C 5.710938 9.820312 5.960938 10.226562 6.1875 10.640625 C 6.261719 10.777344 6.441406 10.726562 6.507812 10.617188 C 6.988281 9.871094 7.398438 9.085938 7.820312 8.3125 C 8.242188 7.539062 8.703125 6.804688 9.214844 6.089844 C 10.066406 4.902344 10.960938 3.597656 12.257812 2.867188 C 12.722656 3.683594 12.75 4.679688 13.210938 5.496094 C 13.210938 5.542969 13.226562 5.59375 13.257812 5.632812 C 13.257812 5.632812 13.261719 5.636719 13.261719 5.636719 C 13.027344 5.863281 12.777344 6.074219 12.523438 6.28125 Z M 12.523438 6.28125 "/>
</g>
</svg>
